<svg width="400" height="32" viewBox="0 0 400 32" fill="none" xmlns="http://www.w3.org/2000/svg">
<mask id="path-1-inside-1_0_447" fill="white">
<path d="M0 6C0 2.68629 2.68629 0 6 0H393.897C397.211 0 399.897 2.68629 399.897 6V26C399.897 29.3137 397.211 32 393.897 32H6.00001C2.6863 32 0 29.3137 0 26V6Z"/>
</mask>
<path d="M0 6C0 2.68629 2.68629 0 6 0H393.897C397.211 0 399.897 2.68629 399.897 6V26C399.897 29.3137 397.211 32 393.897 32H6.00001C2.6863 32 0 29.3137 0 26V6Z" fill="url(#paint0_radial_0_447)"/>
<path d="M0 6C0 2.13401 3.13401 -1 7 -1H392.897C396.763 -1 399.897 2.13401 399.897 6C399.897 3.23858 397.211 1 393.897 1H6C2.68629 1 0 3.23858 0 6ZM399.897 32H0H399.897ZM0 32V0V32ZM399.897 0V32V0Z" fill="#1E2844" mask="url(#path-1-inside-1_0_447)"/>
<path d="M14 8C13.0894 8 12.3209 8.6086 12.0791 9.44124L26.5382 14.829C26.8512 14.9456 27.0588 15.2446 27.0588 15.5786V16.6768C27.0588 17.2347 26.5022 17.6212 25.9795 17.4264L12 12.2174V14.1475L26.5382 19.5647C26.8512 19.6814 27.0588 19.9803 27.0588 20.3144V22.0684C27.0588 22.4025 26.8512 22.7014 26.5382 22.8181L23.3662 24H26C27.1046 24 28 23.1046 28 22V10C28 8.89543 27.1046 8 26 8H14Z" fill="#4ACDFE"/>
<path d="M13.6887 23.9759L20.2659 21.9561C21.0195 21.7247 21.0195 20.658 20.2659 20.4266L12 17.8883V22C12 22.9987 12.732 23.8264 13.6887 23.9759Z" fill="#4ACDFE"/>
<path d="M38 9.7H42.95C44.678 9.7 46.112 10.306 47.252 11.518C48.404 12.73 48.98 14.224 48.98 16C48.98 17.764 48.404 19.258 47.252 20.482C46.112 21.694 44.678 22.3 42.95 22.3H38V9.7ZM40.07 20.32H42.95C44.138 20.32 45.104 19.912 45.848 19.096C46.604 18.28 46.982 17.248 46.982 16C46.982 14.752 46.604 13.72 45.848 12.904C45.104 12.088 44.138 11.68 42.95 11.68H40.07V20.32Z" fill="#4ACDFE"/>
<path d="M54.7372 16.918V20.32H60.3172V22.3H52.6672V9.7H60.2272V11.68H54.7372V14.956H59.7772V16.918H54.7372Z" fill="#4ACDFE"/>
<path d="M69.8646 22.534C67.9686 22.534 66.3966 21.91 65.1486 20.662C63.9006 19.39 63.2766 17.836 63.2766 16C63.2766 14.152 63.9006 12.604 65.1486 11.356C66.3846 10.096 67.9566 9.466 69.8646 9.466C71.0046 9.466 72.0546 9.736 73.0146 10.276C73.9866 10.816 74.7426 11.548 75.2826 12.472L73.4826 13.516C73.1466 12.892 72.6546 12.4 72.0066 12.04C71.3706 11.668 70.6566 11.482 69.8646 11.482C68.5326 11.482 67.4406 11.908 66.5886 12.76C65.7606 13.6 65.3466 14.68 65.3466 16C65.3466 17.32 65.7606 18.4 66.5886 19.24C67.4406 20.092 68.5326 20.518 69.8646 20.518C70.6566 20.518 71.3766 20.338 72.0246 19.978C72.6726 19.606 73.1586 19.108 73.4826 18.484L75.2826 19.51C74.7666 20.422 74.0166 21.16 73.0326 21.724C72.0846 22.264 71.0286 22.534 69.8646 22.534Z" fill="#4ACDFE"/>
<path d="M80.8723 16.918V20.32H86.4523V22.3H78.8023V9.7H86.3624V11.68H80.8723V14.956H85.9123V16.918H80.8723Z" fill="#4ACDFE"/>
<path d="M97.7073 18.25V9.7H99.7773V22.3H98.1573L92.2173 13.75V22.3H90.1473V9.7H91.7673L97.7073 18.25Z" fill="#4ACDFE"/>
<path d="M103.104 9.7H112.284V11.68H108.738V22.3H106.668V11.68H103.104V9.7Z" fill="#4ACDFE"/>
<path d="M125.064 22.3H122.796L120.132 17.71H117.684V22.3H115.614V9.7H120.654C121.782 9.7 122.736 10.096 123.516 10.888C124.308 11.656 124.704 12.61 124.704 13.75C124.704 14.554 124.47 15.292 124.002 15.964C123.546 16.624 122.946 17.104 122.202 17.404L125.064 22.3ZM120.654 11.644H117.684V15.856H120.654C121.206 15.856 121.674 15.652 122.058 15.244C122.442 14.836 122.634 14.338 122.634 13.75C122.634 13.162 122.442 12.664 122.058 12.256C121.674 11.848 121.206 11.644 120.654 11.644Z" fill="#4ACDFE"/>
<path d="M138.894 22.3H136.662L135.78 19.762H130.416L129.534 22.3H127.284L131.856 9.7H134.34L138.894 22.3ZM133.098 12.13L131.1 17.818H135.096L133.098 12.13Z" fill="#4ACDFE"/>
<path d="M144.118 9.7V20.32H149.248V22.3H142.048V9.7H144.118Z" fill="#4ACDFE"/>
<path d="M152.585 22.3V9.7H154.655V22.3H152.585Z" fill="#4ACDFE"/>
<path d="M166.623 11.41L160.971 20.32H166.767V22.3H158.397V20.59L164.049 11.68H158.523V9.7H166.623V11.41Z" fill="#4ACDFE"/>
<path d="M172.388 16.918V20.32H177.968V22.3H170.318V9.7H177.878V11.68H172.388V14.956H177.428V16.918H172.388Z" fill="#4ACDFE"/>
<path d="M181.663 9.7H186.613C188.34 9.7 189.775 10.306 190.915 11.518C192.066 12.73 192.643 14.224 192.643 16C192.643 17.764 192.066 19.258 190.915 20.482C189.775 21.694 188.34 22.3 186.613 22.3H181.663V9.7ZM183.733 20.32H186.613C187.801 20.32 188.767 19.912 189.511 19.096C190.267 18.28 190.645 17.248 190.645 16C190.645 14.752 190.267 13.72 189.511 12.904C188.767 12.088 187.801 11.68 186.613 11.68H183.733V20.32Z" fill="#4ACDFE"/>
<path d="M208.588 22.534C206.692 22.534 205.12 21.91 203.872 20.662C202.624 19.39 202 17.836 202 16C202 14.152 202.624 12.604 203.872 11.356C205.108 10.096 206.68 9.466 208.588 9.466C209.728 9.466 210.778 9.736 211.738 10.276C212.71 10.816 213.466 11.548 214.006 12.472L212.206 13.516C211.87 12.892 211.378 12.4 210.73 12.04C210.094 11.668 209.38 11.482 208.588 11.482C207.256 11.482 206.164 11.908 205.312 12.76C204.484 13.6 204.07 14.68 204.07 16C204.07 17.32 204.484 18.4 205.312 19.24C206.164 20.092 207.256 20.518 208.588 20.518C209.38 20.518 210.1 20.338 210.748 19.978C211.396 19.606 211.882 19.108 212.206 18.484L214.006 19.51C213.49 20.422 212.74 21.16 211.756 21.724C210.808 22.264 209.752 22.534 208.588 22.534Z" fill="#4ACDFE"/>
<path d="M226.975 22.3H224.707L222.043 17.71H219.595V22.3H217.525V9.7H222.565C223.693 9.7 224.647 10.096 225.427 10.888C226.219 11.656 226.615 12.61 226.615 13.75C226.615 14.554 226.381 15.292 225.913 15.964C225.457 16.624 224.857 17.104 224.113 17.404L226.975 22.3ZM222.565 11.644H219.595V15.856H222.565C223.117 15.856 223.585 15.652 223.969 15.244C224.353 14.836 224.545 14.338 224.545 13.75C224.545 13.162 224.353 12.664 223.969 12.256C223.585 11.848 223.117 11.644 222.565 11.644Z" fill="#4ACDFE"/>
<path d="M237.339 9.7H239.697L235.305 17.296V22.3H233.235V17.296L228.843 9.7H231.201L234.279 15.28L237.339 9.7Z" fill="#4ACDFE"/>
<path d="M242.852 9.7H247.496C248.684 9.7 249.674 10.096 250.466 10.888C251.27 11.68 251.672 12.664 251.672 13.84C251.672 15.004 251.27 15.988 250.466 16.792C249.674 17.584 248.684 17.98 247.496 17.98H244.922V22.3H242.852V9.7ZM244.922 16.036H247.496C248.108 16.036 248.612 15.832 249.008 15.424C249.404 15.004 249.602 14.476 249.602 13.84C249.602 13.204 249.404 12.682 249.008 12.274C248.612 11.854 248.108 11.644 247.496 11.644H244.922V16.036Z" fill="#4ACDFE"/>
<path d="M254.015 9.7H263.195V11.68H259.649V22.3H257.579V11.68H254.015V9.7Z" fill="#4ACDFE"/>
<path d="M276.335 20.644C275.075 21.904 273.533 22.534 271.709 22.534C269.885 22.534 268.337 21.904 267.065 20.644C265.805 19.372 265.175 17.824 265.175 16C265.175 14.176 265.805 12.634 267.065 11.374C268.337 10.102 269.885 9.466 271.709 9.466C273.533 9.466 275.075 10.102 276.335 11.374C277.607 12.634 278.243 14.176 278.243 16C278.243 17.824 277.607 19.372 276.335 20.644ZM268.523 19.24C269.399 20.092 270.461 20.518 271.709 20.518C272.969 20.518 274.025 20.092 274.877 19.24C275.741 18.376 276.173 17.296 276.173 16C276.173 14.704 275.741 13.63 274.877 12.778C274.025 11.914 272.969 11.482 271.709 11.482C270.449 11.482 269.387 11.914 268.523 12.778C267.671 13.63 267.245 14.704 267.245 16C267.245 17.284 267.671 18.364 268.523 19.24Z" fill="#4ACDFE"/>
<path d="M288.232 9.7H292.876C294.064 9.7 295.054 10.096 295.846 10.888C296.65 11.68 297.052 12.664 297.052 13.84C297.052 15.004 296.65 15.988 295.846 16.792C295.054 17.584 294.064 17.98 292.876 17.98H290.302V22.3H288.232V9.7ZM290.302 16.036H292.876C293.488 16.036 293.992 15.832 294.388 15.424C294.784 15.004 294.982 14.476 294.982 13.84C294.982 13.204 294.784 12.682 294.388 12.274C293.992 11.854 293.488 11.644 292.876 11.644H290.302V16.036Z" fill="#4ACDFE"/>
<path d="M302.719 9.7V20.32H307.849V22.3H300.649V9.7H302.719Z" fill="#4ACDFE"/>
<path d="M321.977 22.3H319.745L318.863 19.762H313.499L312.617 22.3H310.367L314.939 9.7H317.423L321.977 22.3ZM316.181 12.13L314.183 17.818H318.179L316.181 12.13Z" fill="#4ACDFE"/>
<path d="M323.245 9.7H332.425V11.68H328.879V22.3H326.809V11.68H323.245V9.7Z" fill="#4ACDFE"/>
<path d="M343.136 9.7V11.68H337.826V15.208H342.956V17.188H337.826V22.3H335.756V9.7H343.136Z" fill="#4ACDFE"/>
<path d="M357.402 20.644C356.142 21.904 354.6 22.534 352.776 22.534C350.952 22.534 349.404 21.904 348.132 20.644C346.872 19.372 346.242 17.824 346.242 16C346.242 14.176 346.872 12.634 348.132 11.374C349.404 10.102 350.952 9.466 352.776 9.466C354.6 9.466 356.142 10.102 357.402 11.374C358.674 12.634 359.31 14.176 359.31 16C359.31 17.824 358.674 19.372 357.402 20.644ZM349.59 19.24C350.466 20.092 351.528 20.518 352.776 20.518C354.036 20.518 355.092 20.092 355.944 19.24C356.808 18.376 357.24 17.296 357.24 16C357.24 14.704 356.808 13.63 355.944 12.778C355.092 11.914 354.036 11.482 352.776 11.482C351.516 11.482 350.454 11.914 349.59 12.778C348.738 13.63 348.312 14.704 348.312 16C348.312 17.284 348.738 18.364 349.59 19.24Z" fill="#4ACDFE"/>
<path d="M372.448 22.3H370.18L367.516 17.71H365.068V22.3H362.998V9.7H368.038C369.166 9.7 370.12 10.096 370.9 10.888C371.692 11.656 372.088 12.61 372.088 13.75C372.088 14.554 371.854 15.292 371.386 15.964C370.93 16.624 370.33 17.104 369.586 17.404L372.448 22.3ZM368.038 11.644H365.068V15.856H368.038C368.59 15.856 369.058 15.652 369.442 15.244C369.826 14.836 370.018 14.338 370.018 13.75C370.018 13.162 369.826 12.664 369.442 12.256C369.058 11.848 368.59 11.644 368.038 11.644Z" fill="#4ACDFE"/>
<path d="M385.684 9.7H387.897V22.3H385.827V13.318L381.993 19.654H381.741L377.908 13.3V22.3H375.837V9.7H378.069L381.867 16L385.684 9.7Z" fill="#4ACDFE"/>
<defs>
<radialGradient id="paint0_radial_0_447" cx="0" cy="0" r="1" gradientUnits="userSpaceOnUse" gradientTransform="translate(199.949 1.79432e-06) rotate(89.0402) scale(32.0045 398.808)">
<stop stop-color="#131A2E"/>
<stop offset="1" stop-color="#111624"/>
</radialGradient>
</defs>
</svg>
