<svg width="60" height="48" viewBox="0 0 60 48" fill="none" xmlns="http://www.w3.org/2000/svg">
<g filter="url(#filter0_i_0_585)">
<rect width="60" height="48" rx="4" fill="url(#paint0_linear_0_585)"/>
</g>
<rect x="0.5" y="0.5" width="59" height="47" rx="3.5" stroke="#52C5FA"/>
<g filter="url(#filter1_i_0_585)">
<path d="M30 27.5L26.5 24M30 27.5C31.6296 26.8802 33.193 26.0985 34.6666 25.1667M30 27.5V33.3334C30 33.3334 33.535 32.6917 34.6666 31C35.9266 29.11 34.6666 25.1667 34.6666 25.1667M26.5 24C27.1208 22.3894 27.9025 20.8454 28.8333 19.3917C30.1927 17.2182 32.0855 15.4286 34.3318 14.1931C36.5781 12.9577 39.1031 12.3175 41.6666 12.3334C41.6666 15.5067 40.7566 21.0834 34.6666 25.1667M26.5 24H20.6666C20.6666 24 21.3083 20.465 23 19.3334C24.89 18.0734 28.8333 19.3334 28.8333 19.3334M21.25 29.25C19.5 30.72 18.9166 35.0834 18.9166 35.0834C18.9166 35.0834 23.28 34.5 24.75 32.75C25.5783 31.77 25.5666 30.265 24.645 29.355C24.1915 28.9222 23.5941 28.6721 22.9676 28.6527C22.341 28.6333 21.7293 28.8461 21.25 29.25Z" stroke="#52C5FA" stroke-width="1.8" stroke-linecap="round" stroke-linejoin="round"/>
</g>
<defs>
<filter id="filter0_i_0_585" x="0" y="0" width="60" height="49" filterUnits="userSpaceOnUse" color-interpolation-filters="sRGB">
<feFlood flood-opacity="0" result="BackgroundImageFix"/>
<feBlend mode="normal" in="SourceGraphic" in2="BackgroundImageFix" result="shape"/>
<feColorMatrix in="SourceAlpha" type="matrix" values="0 0 0 0 0 0 0 0 0 0 0 0 0 0 0 0 0 0 127 0" result="hardAlpha"/>
<feOffset dy="1"/>
<feGaussianBlur stdDeviation="3.5"/>
<feComposite in2="hardAlpha" operator="arithmetic" k2="-1" k3="1"/>
<feColorMatrix type="matrix" values="0 0 0 0 1 0 0 0 0 1 0 0 0 0 1 0 0 0 0.32 0"/>
<feBlend mode="overlay" in2="shape" result="effect1_innerShadow_0_585"/>
</filter>
<filter id="filter1_i_0_585" x="18.0166" y="11.433" width="24.55" height="26.5504" filterUnits="userSpaceOnUse" color-interpolation-filters="sRGB">
<feFlood flood-opacity="0" result="BackgroundImageFix"/>
<feBlend mode="normal" in="SourceGraphic" in2="BackgroundImageFix" result="shape"/>
<feColorMatrix in="SourceAlpha" type="matrix" values="0 0 0 0 0 0 0 0 0 0 0 0 0 0 0 0 0 0 127 0" result="hardAlpha"/>
<feOffset dy="2"/>
<feGaussianBlur stdDeviation="1"/>
<feComposite in2="hardAlpha" operator="arithmetic" k2="-1" k3="1"/>
<feColorMatrix type="matrix" values="0 0 0 0 1 0 0 0 0 1 0 0 0 0 1 0 0 0 0.47 0"/>
<feBlend mode="overlay" in2="shape" result="effect1_innerShadow_0_585"/>
</filter>
<linearGradient id="paint0_linear_0_585" x1="30" y1="0" x2="30" y2="48" gradientUnits="userSpaceOnUse">
<stop stop-color="#242834"/>
<stop offset="1" stop-color="#1A1D26"/>
</linearGradient>
</defs>
</svg>
