<svg width="60" height="48" viewBox="0 0 60 48" fill="none" xmlns="http://www.w3.org/2000/svg">
<g filter="url(#filter0_i_0_553)">
<rect width="60" height="48" rx="4" fill="url(#paint0_linear_0_553)"/>
</g>
<rect x="0.5" y="0.5" width="59" height="47" rx="3.5" stroke="#52C5FA"/>
<g filter="url(#filter1_i_0_553)">
<path d="M41 31.3333V29C41 27.7113 39.9553 26.6667 38.6666 26.6667C37.378 26.6667 36.3333 27.7113 36.3333 29V31.3333M43.3333 21.3333H16.6666M43.3333 22.6667V18.9333C43.3333 17.4399 43.3333 16.6931 43.0426 16.1227C42.787 15.6209 42.379 15.213 41.8773 14.9573C41.3068 14.6667 40.5601 14.6667 39.0666 14.6667H20.9333C19.4398 14.6667 18.6931 14.6667 18.1227 14.9573C17.6209 15.213 17.2129 15.6209 16.9573 16.1227C16.6666 16.6931 16.6666 17.4398 16.6666 18.9333V29.0667C16.6666 30.5601 16.6666 31.3069 16.9573 31.8773C17.2129 32.3791 17.6209 32.787 18.1227 33.0427C18.6931 33.3333 19.4398 33.3333 20.9333 33.3333H28.6666M36.1333 36.6667H41.2C41.9467 36.6667 42.3201 36.6667 42.6053 36.5213C42.8562 36.3935 43.0601 36.1895 43.188 35.9386C43.3333 35.6534 43.3333 35.2801 43.3333 34.5333V33.4667C43.3333 32.7199 43.3333 32.3466 43.188 32.0613C43.0601 31.8105 42.8562 31.6065 42.6053 31.4786C42.3201 31.3333 41.9467 31.3333 41.2 31.3333H36.1333C35.3866 31.3333 35.0132 31.3333 34.728 31.4786C34.4771 31.6065 34.2731 31.8105 34.1453 32.0613C34 32.3466 34 32.7199 34 33.4667V34.5333C34 35.2801 34 35.6534 34.1453 35.9386C34.2731 36.1895 34.4771 36.3935 34.728 36.5213C35.0132 36.6667 35.3866 36.6667 36.1333 36.6667Z" stroke="#52C5FA" stroke-width="1.8" stroke-linecap="round" stroke-linejoin="round"/>
</g>
<defs>
<filter id="filter0_i_0_553" x="0" y="0" width="60" height="49" filterUnits="userSpaceOnUse" color-interpolation-filters="sRGB">
<feFlood flood-opacity="0" result="BackgroundImageFix"/>
<feBlend mode="normal" in="SourceGraphic" in2="BackgroundImageFix" result="shape"/>
<feColorMatrix in="SourceAlpha" type="matrix" values="0 0 0 0 0 0 0 0 0 0 0 0 0 0 0 0 0 0 127 0" result="hardAlpha"/>
<feOffset dy="1"/>
<feGaussianBlur stdDeviation="3.5"/>
<feComposite in2="hardAlpha" operator="arithmetic" k2="-1" k3="1"/>
<feColorMatrix type="matrix" values="0 0 0 0 1 0 0 0 0 1 0 0 0 0 1 0 0 0 0.32 0"/>
<feBlend mode="overlay" in2="shape" result="effect1_innerShadow_0_553"/>
</filter>
<filter id="filter1_i_0_553" x="15.7666" y="13.7667" width="28.4667" height="25.8" filterUnits="userSpaceOnUse" color-interpolation-filters="sRGB">
<feFlood flood-opacity="0" result="BackgroundImageFix"/>
<feBlend mode="normal" in="SourceGraphic" in2="BackgroundImageFix" result="shape"/>
<feColorMatrix in="SourceAlpha" type="matrix" values="0 0 0 0 0 0 0 0 0 0 0 0 0 0 0 0 0 0 127 0" result="hardAlpha"/>
<feOffset dy="2"/>
<feGaussianBlur stdDeviation="1"/>
<feComposite in2="hardAlpha" operator="arithmetic" k2="-1" k3="1"/>
<feColorMatrix type="matrix" values="0 0 0 0 1 0 0 0 0 1 0 0 0 0 1 0 0 0 0.47 0"/>
<feBlend mode="overlay" in2="shape" result="effect1_innerShadow_0_553"/>
</filter>
<linearGradient id="paint0_linear_0_553" x1="30" y1="0" x2="30" y2="48" gradientUnits="userSpaceOnUse">
<stop stop-color="#242834"/>
<stop offset="1" stop-color="#1A1D26"/>
</linearGradient>
</defs>
</svg>
